
        <svg xmlns="http://www.w3.org/2000/svg" xmlns:xlink="http://www.w3.org/1999/xlink" version="1.1" width="3134.042969108105" height="550.2271545165478" viewBox="0 0 3134.042969108105 550.2271545165478">
			
			<g transform="scale(6.702148455405235) translate(10, 10)">
				<defs id="SvgjsDefs1524"/><g id="SvgjsG1525" featureKey="nameLeftFeature-0" transform="matrix(1.2320857492624806,0,0,1.2320857492624806,-1.4785031047414703,-0.7850254661241625)" fill="#000"><path d="M5.76 40 l-3.72 -3.72 l0 -19.24 l-0.84 -0.56 l0 -4.48 l6.72 0 l0 4.48 l-0.84 0.56 l0 17.16 l0.76 0.76 l4.64 0 l0.76 -0.76 l0 -17.16 l-0.84 -0.56 l0 -4.48 l6.72 0 l0 4.48 l-0.84 0.56 l0 19.24 l-3.72 3.72 l-8.8 0 z M23.832 40 l0 -4.48 l0.84 -0.56 l0 -17.92 l-0.84 -0.56 l0 -4.48 l6.2 0 l5.84 14.96 l0 -9.92 l-0.84 -0.56 l0 -4.48 l6.72 0 l0 4.48 l-0.84 0.56 l0 22.96 l-5.36 0 l-5.84 -14.96 l0 9.92 l0.84 0.56 l0 4.48 l-6.72 0 z M46.464000000000006 40 l0 -4.48 l0.84 -0.56 l0 -17.92 l-0.84 -0.56 l0 -4.48 l6.72 0 l0 4.48 l-0.84 0.56 l0 17.92 l0.84 0.56 l0 4.48 l-6.72 0 z M62.93600000000001 40 l0 -4.48 l0.84 -0.56 l0 -17.92 l-0.84 0 l-0.56 0.84 l-4.48 0 l0 -5.88 l16.8 0 l0 5.88 l-4.48 0 l-0.56 -0.84 l-0.84 0 l0 17.92 l0.84 0.56 l0 4.48 l-6.72 0 z M83.368 40 l0 -4.48 l0.84 -0.56 l0 -5.36 l-4.44 -12.36 l-1.16 -0.76 l0 -4.48 l4.6 0 l3.52 9.72 l3.52 -9.72 l4.6 0 l0 4.48 l-1.16 0.76 l-4.44 12.28 l0 5.48 l0.84 0.52 l0 4.48 l-6.72 0 z"/></g><g id="SvgjsG1526" featureKey="inlineSymbolFeature-0" transform="matrix(0.1909975736820122,0,0,0.1909975736820122,132.52849129455106,-17.938493227683427)" fill="#000"><g xmlns="http://www.w3.org/2000/svg"><g><g><path d="M366.52,389.63H185.84c-2.15,0-3.9-1.68-4-3.819c-0.58-12.899-11.14-23-24.03-23h-0.02c-6.77,0-13.04,2.739-17.65,7.699     c-0.76,0.811-1.83,1.28-2.93,1.28c-1.02,0-1.98-0.38-2.73-1.069c-0.78-0.729-1.23-1.721-1.27-2.791s0.34-2.08,1.07-2.869     c2.96-3.189,6.48-5.711,10.46-7.479c4.12-1.84,8.51-2.771,13.04-2.771c7.66,0.01,15.07,2.75,20.87,7.721     c5.72,4.908,9.55,11.699,10.78,19.1H362.52V275.27c0-2.199,1.801-4,4-4c2.211,0,4,1.801,4,4v110.36c0,1.07-0.42,2.07-1.17,2.83     C368.6,389.21,367.59,389.63,366.52,389.63z M100.82,368.279c-2.21,0-4-1.801-4-4V171.6c0-1.06,0.42-2.09,1.17-2.83     c0.74-0.75,1.77-1.17,2.83-1.17h119.66c1.84,0,3.48,1.3,3.9,3.101c2,8.72,6.11,16.92,11.88,23.72     c10.67,12.64,26.311,19.89,42.91,19.89c16.551,0,32.18-7.25,42.86-19.899c5.76-6.79,9.869-14.99,11.869-23.71     c0.42-1.83,2.029-3.101,3.899-3.101h28.72c1.062,0,2.091,0.42,2.83,1.17c0.74,0.74,1.17,1.771,1.17,2.83v33.67c0,2.21-1.79,4-4,4     c-2.199,0-4-1.79-4-4v-29.68H340.91c-2.511,8.9-6.812,16.97-12.78,23.99c-12.189,14.45-30.04,22.729-48.96,22.729     c-18.971,0-36.84-8.279-49.02-22.72c-5.96-7.03-10.26-15.1-12.78-24H104.81v175.67c0.01,0.01,0.01,0.01,0.01,0.021     c0,0.039,0,0.078-0.01,0.13v12.87C104.81,366.479,103.02,368.279,100.82,368.279z"/></g><g><path d="M496,389.63h-28.88c-2.142,0-3.892-1.67-3.99-3.812c-0.64-12.898-11.22-23.01-24.1-23.01     c-6.352,0-12.341,2.461-16.87,6.91c-0.75,0.74-1.75,1.15-2.812,1.15c-1.08,0-2.09-0.42-2.85-1.189     c-0.75-0.761-1.16-1.771-1.15-2.841c0.011-1.069,0.44-2.069,1.2-2.819c6.03-5.939,14.01-9.211,22.47-9.211     c7.671,0,15.091,2.75,20.892,7.721c5.72,4.91,9.55,11.689,10.8,19.101H492V308.3l-67.58-84.95h-53.9v157.78c0,2.2-1.789,4-4,4     c-2.199,0-4-1.8-4-4V219.35c0-1.05,0.432-2.08,1.171-2.83c0.75-0.739,1.779-1.17,2.829-1.17h59.83c1.21,0,2.381,0.57,3.131,1.51     l69.649,87.551c0.561,0.71,0.87,1.601,0.87,2.489v78.729c0,1.07-0.42,2.07-1.17,2.83C498.069,389.21,497.069,389.63,496,389.63z"/></g><g><path d="M496,311.12H366.52c-1.05,0-2.079-0.431-2.829-1.181c-0.739-0.739-1.171-1.771-1.171-2.819     c0-1.062,0.432-2.091,1.171-2.83c0.75-0.75,1.779-1.17,2.829-1.17H496c1.05,0,2.08,0.42,2.83,1.17     c0.739,0.739,1.17,1.771,1.17,2.83c0,1.05-0.431,2.08-1.181,2.819C498.08,310.689,497.05,311.12,496,311.12z"/></g><g><path d="M157.79,419.04L157.79,419.04c-17.69-0.011-32.09-14.41-32.1-32.11c0-8.58,3.34-16.648,9.4-22.709     c6.06-6.07,14.12-9.41,22.7-9.41l0,0l0,0c8.58,0,16.64,3.34,22.7,9.41c6.06,6.061,9.4,14.129,9.4,22.709     c0,8.562-3.34,16.62-9.4,22.68C174.43,415.689,166.37,419.029,157.79,419.04z M157.79,362.811     c-13.26,0.029-24.07,10.84-24.1,24.119c0.03,13.271,10.84,24.08,24.1,24.11c13.26-0.03,24.07-10.84,24.1-24.11     C181.86,373.648,171.05,362.84,157.79,362.811L157.79,362.811z"/></g><g><path d="M439.03,419.04L439.03,419.04c-17.7-0.011-32.091-14.42-32.102-32.11c0-17.709,14.4-32.109,32.102-32.119l0,0l0,0     c8.568,0,16.64,3.34,22.698,9.41c6.052,6.061,9.392,14.129,9.392,22.709C471.12,404.63,456.72,419.029,439.03,419.04z      M439.03,362.811c-13.271,0.029-24.08,10.84-24.102,24.119c0,6.41,2.511,12.461,7.07,17.03c4.569,4.56,10.609,7.08,17.03,7.08     c13.26-0.03,24.068-10.84,24.09-24.11C463.1,373.648,452.29,362.84,439.03,362.811L439.03,362.811z"/></g><g><path d="M389.13,288.05L389.13,288.05h-0.021c-1.061,0-2.061-0.42-2.819-1.17s-1.181-1.76-1.181-2.83v-38.04     c0-1.05,0.431-2.08,1.171-2.83c0.75-0.74,1.778-1.17,2.829-1.17h33.189c1.51,0,2.92,0.88,3.59,2.23l18.642,37.71     c0.608,1.229,0.539,2.71-0.182,3.88c-0.729,1.18-1.989,1.891-3.38,1.898L389.13,288.05z M393.109,250.01v30.01l41.421-0.25     l-14.711-29.76H393.109z"/></g><g><path d="M57.58,217.38c-0.05,0-0.09,0-0.13,0h-40.5h-0.01c-2.21,0-4-1.79-4-4s1.79-4,4-4h192.32c1.05,0,2.08,0.43,2.83,1.17     c0.74,0.75,1.17,1.78,1.17,2.83c0,1.05-0.43,2.08-1.17,2.83c-0.75,0.74-1.78,1.17-2.83,1.17H57.58z"/></g><g><path d="M38.21,248.3c-0.05,0-0.09-0.01-0.14-0.01h-1.74c-0.01,0.01-0.01,0.01-0.02,0.01c-2.2,0-4-1.8-4-4.01     c0-2.2,1.8-3.99,4-3.99h172.95c1.05,0,2.08,0.42,2.83,1.17c0.74,0.74,1.17,1.771,1.17,2.82c0,1.06-0.43,2.09-1.17,2.83     c-0.75,0.75-1.78,1.17-2.83,1.17L38.21,248.3z"/></g><g><path d="M209.26,279.26H53.71c-1.05,0-2.08-0.43-2.83-1.17c-0.74-0.74-1.17-1.771-1.17-2.83c0-1.05,0.43-2.09,1.17-2.83     c0.75-0.74,1.78-1.17,2.83-1.17h155.55c1.05,0,2.08,0.43,2.83,1.17c0.74,0.75,1.17,1.78,1.17,2.83c0,1.051-0.43,2.09-1.17,2.83     C211.34,278.83,210.31,279.26,209.26,279.26z"/></g><g><path d="M209.26,310.18H69.34c-1.05,0-2.08-0.43-2.82-1.17c-0.75-0.75-1.18-1.779-1.18-2.83c0-1.06,0.43-2.09,1.17-2.83     c0.75-0.75,1.78-1.17,2.83-1.17h139.92c1.05,0,2.08,0.42,2.83,1.17c0.74,0.74,1.17,1.771,1.17,2.83c0,1.051-0.43,2.08-1.17,2.83     C211.34,309.75,210.31,310.18,209.26,310.18z"/></g><g><path d="M157.79,403.029L157.79,403.029c-8.89-0.01-16.14-7.229-16.15-16.1c0.01-8.91,7.25-16.16,16.15-16.16l0,0l0,0l0,0     c4.31,0,8.36,1.681,11.4,4.739c3.02,3.05,4.69,7.11,4.7,11.421C173.89,395.8,166.66,403.02,157.79,403.029z M157.79,378.76     c-4.49,0.01-8.15,3.68-8.16,8.17c0.01,4.461,3.67,8.09,8.16,8.102c4.46-0.012,8.1-3.641,8.1-8.102     C165.89,382.439,162.26,378.77,157.79,378.76L157.79,378.76z"/></g><g><path d="M439.03,403.029L439.03,403.029c-8.881-0.01-16.102-7.229-16.102-16.1c0.011-4.311,1.681-8.371,4.7-11.421     c3.04-3.06,7.09-4.739,11.4-4.739l0,0l0,0l0,0c8.89,0,16.14,7.25,16.148,16.16C455.16,395.8,447.92,403.02,439.03,403.029z      M439.03,378.76c-4.472,0.01-8.102,3.68-8.102,8.17c0.011,4.461,3.641,8.09,8.102,8.102c4.479-0.012,8.14-3.641,8.148-8.102     C447.17,382.439,443.51,378.77,439.03,378.76L439.03,378.76z"/></g><g><path d="M279.16,222.31c-8.66,0-17.07-1.7-24.98-5.04c-7.64-3.229-14.51-7.85-20.4-13.75c-5.9-5.89-10.53-12.75-13.76-20.39     c-3.35-7.91-5.04-16.32-5.05-24.99c0-10.96,2.81-21.78,8.13-31.29c5.15-9.22,12.57-17.109,21.46-22.81     c0.64-0.41,1.39-0.63,2.15-0.63c1.37,0,2.63,0.689,3.37,1.84c0.58,0.899,0.77,1.97,0.54,3.01c-0.22,1.04-0.84,1.94-1.74,2.51     c-16.22,10.42-25.91,28.13-25.91,47.37c0.01,15.01,5.85,29.11,16.46,39.73c10.62,10.6,24.73,16.439,39.73,16.439     c14.99,0,29.08-5.84,39.688-16.439c10.61-10.62,16.45-24.73,16.46-39.73c-0.01-15.01-5.85-29.13-16.46-39.76     c-10.608-10.61-24.698-16.46-39.669-16.47c-0.011,0.01-0.011,0.01-0.021,0.01c-2.2,0-4-1.8-4-4c0-2.21,1.8-4,4-4     c8.659,0,17.05,1.689,24.959,5.04c7.641,3.24,14.501,7.87,20.391,13.77c5.891,5.9,10.521,12.761,13.75,20.41     c3.351,7.92,5.04,16.33,5.05,25c-0.01,8.67-1.699,17.08-5.05,24.99c-3.229,7.64-7.859,14.5-13.75,20.39     c-5.89,5.891-12.75,10.521-20.391,13.75C296.21,220.609,287.82,222.31,279.16,222.31z"/></g><g><path d="M279.43,129.14c-2.209,0-4-1.79-4-4v-15.07c0-2.199,1.791-4,4-4c2.2,0,4,1.801,4,4v15.07     C283.43,127.35,281.63,129.14,279.43,129.14z"/></g><g><path d="M327.21,162.399h-15.12c-2.2,0-4-1.79-4-4s1.8-4,4-4h15.12c2.2,0,4,1.79,4,4S329.41,162.399,327.21,162.399z"/></g><g><path d="M278.85,210.2c-2.199,0-4-1.79-4-4v-15.06c0-2.21,1.801-4,4-4c2.211,0,4,1.79,4,4v15.06     C282.85,208.41,281.061,210.2,278.85,210.2z"/></g><g><path d="M246.13,161.83h-15.06c-2.2,0-4-1.8-4-4c0-2.21,1.8-4,4-4h15.06c2.21,0,4,1.79,4,4     C250.13,160.03,248.34,161.83,246.13,161.83z"/></g><g><path d="M293.449,184.28c-1.369,0-2.629-0.69-3.369-1.841l-14.28-22.13c-0.79-1.229-0.851-2.8-0.149-4.09l13.771-25.2     c0.699-1.29,2.05-2.08,3.511-2.08c0.67,0,1.33,0.17,1.92,0.49c0.93,0.51,1.619,1.36,1.92,2.38c0.301,1.03,0.18,2.11-0.33,3.04     l-12.629,23.12l13,20.14c1.188,1.851,0.658,4.33-1.191,5.53C294.971,184.06,294.221,184.28,293.449,184.28z"/></g></g></g></g><g id="SvgjsG1527" featureKey="nameRightFeature-0" transform="matrix(1.2320859171208427,0,0,1.2320859171208427,234.8018993124286,-0.7850298304414185)" fill="#000"><path d="M10.712 40 l0 -4.48 l0.84 -0.56 l0 -17.92 l-0.84 -0.56 l0 -4.48 l6.72 0 l0 4.48 l-0.84 0.56 l0 17.92 l2.8 0 l0.56 -0.84 l4.48 0 l0 5.88 l-13.72 0 z M32.864000000000004 40 l-3.72 -3.72 l0 -20.56 l3.72 -3.72 l9.08 0 l3.72 3.72 l0 20.56 l-3.72 3.72 l-9.08 0 z M34.944 34.96 l4.92 0 l0.76 -0.76 l0 -16.4 l-0.76 -0.76 l-4.92 0 l-0.76 0.76 l0 16.4 z M54.096000000000004 40 l-3.72 -3.72 l0 -20.56 l3.72 -3.72 l8.8 0 l3.72 3.72 l0 5.24 l-5.04 0 l0 -3.16 l-0.76 -0.76 l-4.64 0 l-0.76 0.76 l0 16.4 l0.76 0.76 l4.64 0 l0.76 -0.76 l0 -5.68 l-1.68 0 l-0.84 -0.56 l0 -4.48 l7.56 0 l0 12.8 l-3.72 3.72 l-8.8 0 z M71.328 40 l0 -4.48 l0.84 -0.56 l0 -17.92 l-0.84 -0.56 l0 -4.48 l6.72 0 l0 4.48 l-0.84 0.56 l0 17.92 l0.84 0.56 l0 4.48 l-6.72 0 z M86.48 40 l-3.72 -3.72 l0 -5.24 l5.04 0 l0 3.16 l0.76 0.76 l4.08 0 l0.76 -0.76 l0 -4.92 l-0.76 -0.76 l-6.16 0 l-3.72 -3.72 l0 -9.08 l3.72 -3.72 l8.24 0 l3.72 3.72 l0 5.24 l-5.04 0 l0 -3.16 l-0.76 -0.76 l-4.08 0 l-0.76 0.76 l0 4.92 l0.76 0.76 l6.16 0 l3.72 3.72 l0 9.08 l-3.72 3.72 l-8.24 0 z M108.192 40 l0 -4.48 l0.84 -0.56 l0 -17.92 l-0.84 0 l-0.56 0.84 l-4.48 0 l0 -5.88 l16.8 0 l0 5.88 l-4.48 0 l-0.56 -0.84 l-0.84 0 l0 17.92 l0.84 0.56 l0 4.48 l-6.72 0 z M124.664 40 l0 -4.48 l0.84 -0.56 l0 -17.92 l-0.84 -0.56 l0 -4.48 l6.72 0 l0 4.48 l-0.84 0.56 l0 17.92 l0.84 0.56 l0 4.48 l-6.72 0 z M139.816 40 l-3.72 -3.72 l0 -20.56 l3.72 -3.72 l8.8 0 l3.72 3.72 l0 5.24 l-5.04 0 l0 -3.16 l-0.76 -0.76 l-4.64 0 l-0.76 0.76 l0 16.4 l0.76 0.76 l4.64 0 l0.76 -0.76 l0 -3.16 l5.04 0 l0 5.24 l-3.72 3.72 l-8.8 0 z M160.768 40 l-3.72 -3.72 l0 -5.24 l5.04 0 l0 3.16 l0.76 0.76 l4.08 0 l0.76 -0.76 l0 -4.92 l-0.76 -0.76 l-6.16 0 l-3.72 -3.72 l0 -9.08 l3.72 -3.72 l8.24 0 l3.72 3.72 l0 5.24 l-5.04 0 l0 -3.16 l-0.76 -0.76 l-4.08 0 l-0.76 0.76 l0 4.92 l0.76 0.76 l6.16 0 l3.72 3.72 l0 9.08 l-3.72 3.72 l-8.24 0 z"/></g>
			</g>
		</svg>
	